<svg width="54" height="62" viewBox="0 0 54 62" fill="gray" xmlns="http://www.w3.org/2000/svg">
<path d="M47.4539 45.2693L36.9182 39.9608C36.4283 39.7158 36.1013 39.2259 36.1013 38.7359V35.5506C36.2648 35.3056 36.4277 35.0607 36.5912 34.8157C37.8981 32.9373 39.0416 30.8135 39.8579 28.6086C41.5733 27.5467 42.7168 25.6683 42.7168 23.5449V19.1348C42.7168 17.9099 42.3083 16.6845 41.5734 15.7045V13.0906C41.6548 12.1107 41.8184 8.10851 38.8781 4.75973C36.3464 1.81945 32.2627 0.349609 26.7905 0.349609C21.3183 0.349609 17.3161 1.81945 14.7029 4.75973C11.7626 8.10851 11.9261 12.1922 12.0076 13.0087V15.7039C11.2727 16.6838 10.8642 17.9093 10.8642 19.1342V23.5444C10.8642 25.1777 11.5177 26.7296 12.661 27.7916C13.6409 31.3854 15.3563 34.0806 16.3362 35.4691V38.6544C16.3362 39.1443 16.0912 39.6343 15.6013 39.8793L5.96402 45.1878C2.28883 47.2296 0.00195312 51.0683 0.00195312 55.2336V59.8072C0.00195312 60.7056 0.736889 61.4405 1.63529 61.4405H52.1916C53.0901 61.4405 53.825 60.7056 53.825 59.8072V55.4784C53.7429 51.1497 51.2926 47.2295 47.4538 45.2692L47.4539 45.2693Z" fill=""/>
</svg>
